<svg width="1024" height="704" viewBox="0 0 1024 704" fill="none" xmlns="http://www.w3.org/2000/svg">
<path d="M128.003 295.94C115.571 304.994 109.677 318.216 103.674 331.185C96.3687 346.968 91.3225 363.467 90.205 381.006C90.0131 384.018 89.6189 388.543 86.0309 388.526C82.1347 388.506 81.6883 384.188 81.6801 380.769C81.6062 349.903 91.0525 321.814 107.103 295.832C112.151 287.66 119.118 281.354 128.755 278.284C140.727 274.47 150.346 277.975 158.565 286.689C161.876 290.199 164.878 294 168.016 297.672C168.449 298.179 168.842 298.719 169.272 299.228C177.812 309.321 182.181 309.398 191.197 299.658C199.179 291.035 207.868 283.131 218.831 278.646C237.196 271.134 253.774 274.911 268.157 288.29C287.871 306.627 299.562 328.982 301.064 356.143C301.675 367.18 299 377.618 293.781 387.345C290.982 392.559 286.919 392.726 282.791 387.352C278.257 381.45 275.742 375.103 276.914 366.989C280.776 340.271 274.476 316.213 253.389 298.389C239.286 286.467 226.57 288.237 211.768 299.928C204.924 305.333 199.94 312.576 193.158 317.993C184.25 325.109 177.986 325.132 168.906 318.239C165.024 315.292 161.704 311.821 158.761 307.956C156.642 305.174 154.545 302.37 152.302 299.689C144.908 290.85 138.099 289.751 128.003 295.94Z" fill="#D1B2E9"/>
<path d="M353.721 365.681C353.102 370.392 352.714 374.697 352.002 378.948C351.744 380.487 351.222 382.541 349.284 382.758C347.08 383.004 346.154 381.03 345.531 379.334C343.746 374.485 344.439 369.388 344.977 364.51C347.22 344.214 353.844 325.291 364.356 307.825C368.957 300.18 374.7 293.531 384.062 291.275C391.539 289.474 397.898 291.219 403.179 296.757C413.563 307.65 420.677 320.597 426.429 334.345C430.474 344.011 434.334 353.767 435.507 364.311C436.567 373.837 432.849 381.941 427.42 389.289C424.55 393.172 420.202 393.42 414.672 390.867C403.222 385.58 393.528 377.643 383.673 369.997C375.4 363.578 366.803 357.648 357.838 351.498C354.963 355.81 354.672 360.621 353.721 365.681ZM408.369 366.142C411.754 367.994 414.478 371.235 418.765 371.409C421.579 366.803 419.747 362.446 418.764 358.184C414.566 339.987 408.19 322.771 395.564 308.508C392.029 304.516 388.517 303.967 384.073 306.805C374.21 313.102 369.249 322.999 364.25 333.502C370.759 336.472 376.531 339.769 381.472 344.26C389.864 351.887 399.02 358.566 408.369 366.142Z" fill="#D1B2E9"/>
<path d="M798.076 371.904C797.75 374.83 797.702 377.362 797.16 379.783C796.68 381.93 796.426 385.078 793.453 384.836C790.909 384.629 789.83 381.877 789.766 379.515C789.627 374.365 789.376 369.137 790.058 364.059C792.521 345.718 798.462 328.475 807.71 312.438C812.692 303.798 818.536 296.055 829.034 293.398C836.195 291.586 842.189 293.28 847.284 298.438C860.839 312.159 868.653 329.221 875.245 346.949C876.864 351.304 878.033 355.832 879.283 360.316C882.278 371.06 879.287 380.732 873.608 389.778C870.485 394.752 866.24 395.899 860.623 393.45C853.11 390.175 846.269 385.773 839.747 380.799C827.597 371.532 815.599 362.043 802.211 353.488C799.648 359.425 798.622 365.374 798.076 371.904ZM855.957 336.47C852.304 326.883 846.947 318.351 840.284 310.561C837.506 307.313 834.186 306.114 830.564 308.059C819.364 314.072 814.126 324.724 808.921 335.881C817.393 339.335 823.801 344.533 830.189 349.908C838.708 357.076 847.577 363.842 856.508 370.494C858.394 371.899 860.718 374.815 863.439 372.845C865.825 371.118 864.697 367.917 864.625 365.308C864.603 364.49 864.342 363.677 864.169 362.866C862.291 354.068 859.817 345.453 855.957 336.47Z" fill="#D1B2E9"/>
<path d="M685.592 312.238C692.587 317.748 696.267 325.781 702.848 331.539C707.306 328.137 710.326 323.718 713.847 319.817C720.133 312.85 728.176 309.54 737.173 308.719C746.573 307.861 753.247 313.687 759.085 319.859C767.871 329.148 771.247 341.067 773.265 353.355C774.971 363.739 773.981 373.924 769.913 383.682C768.937 386.024 768.322 389.197 764.965 389.276C761.95 389.346 760.511 386.879 758.956 384.648C755.304 379.405 754.533 373.942 755.891 367.62C758.09 357.379 757.595 347.112 753.768 337.194C753.232 335.806 752.72 334.317 751.814 333.178C742.415 321.367 735.817 321.015 725.342 330.652C721.221 334.442 718.15 339.364 714.541 343.721C708.293 351.265 701.817 351.848 694.328 345.658C688.742 341.04 684.951 334.874 680.261 329.483C676.404 325.049 673.543 324.428 668.522 327.528C661.246 332.02 656.173 338.541 652.125 345.972C646.34 356.594 642.584 367.883 640.431 379.769C639.854 382.957 640.358 388.241 635.849 387.794C631.563 387.368 632.634 382.437 632.662 379.001C632.805 361.482 637.902 345.221 645.629 329.752C649.614 321.776 654.986 314.695 663.526 310.96C670.885 307.741 678.277 306.833 685.592 312.238Z" fill="#D1B2E9"/>
<path d="M890.84 239.086C887.693 236.791 883.804 236.852 881.167 234.355C879.327 232.613 877.476 230.632 877.983 227.931C878.499 225.19 881.359 225.51 883.303 225.071C894.216 222.608 902.071 227.22 907.138 238.098C912.134 248.824 912.565 260.263 913.262 271.692C914.537 292.579 915.147 313.534 919.349 334.124C922.114 347.673 928.517 359.366 938.059 369.369C945.44 377.106 954.526 378.327 964.256 375.768C969.369 374.423 974.186 371.966 979.166 370.088C981.181 369.327 983.23 368.5 985.337 368.175C990.291 367.41 992.263 369.865 990.687 374.614C989.29 378.826 987.041 382.277 983.075 384.721C973.158 390.835 962.591 394.4 950.859 393.263C939.053 392.12 930.857 384.871 923.677 376.239C910.105 359.921 903.774 340.741 901.685 319.923C899.61 299.24 899.269 278.444 897.612 257.737C897.085 251.15 896.127 244.453 890.84 239.086Z" fill="#D1B2E9"/>
<path d="M455.702 374.645C465.801 369.914 475.774 365.711 484.417 358.31C478.426 351.359 473.356 343.986 469.599 335.765C467.578 331.345 466.072 326.805 465.359 321.978C465.116 320.33 465.025 318.963 466.737 318.197C468.475 317.419 470.107 317.82 471.2 319.305C472.072 320.49 472.722 321.89 473.229 323.282C476.932 333.431 483.729 341.313 491.403 348.628C494.431 351.514 496.921 351.665 500.505 349.229C508.821 343.577 516.518 337.276 523.369 329.939C525.879 327.25 528.106 324.34 529.22 320.74C530.188 317.611 532.636 317.25 535.235 317.921C537.949 318.62 538.03 321.005 537.657 323.212C536.782 328.391 534.548 333.052 531.598 337.338C526.681 344.481 521.315 351.273 515.289 357.533C514.055 358.815 512.372 359.785 511.835 362.025C520.067 367.2 529.131 370.143 538.684 371.781C542.311 372.403 546.198 372.783 547.113 377.325C547.869 381.082 543.842 390.32 541.215 391.607C539.85 392.275 538.671 391.884 537.394 391.387C525.88 386.915 514.577 381.955 504.578 374.619C500.965 371.968 498.614 372.48 495.482 375.16C487.253 382.205 478.661 388.774 469.008 393.853C463.655 396.669 461.511 396.59 457.88 391.829C455.888 389.216 454.353 386.169 453.068 383.125C451.732 379.959 452.068 376.881 455.702 374.645Z" fill="#D1B2E9"/>
<path d="M574.638 381.056C571.427 373.669 574.501 367.282 576.929 361.016C581.032 350.422 584.091 339.641 584.78 328.263C584.982 324.92 584.596 321.639 583.514 318.44C582.642 315.859 581.77 312.976 584.765 311.326C587.829 309.638 591.2 309.472 594.078 311.999C597.012 314.575 598.822 317.922 600.276 321.512C603.715 330.005 604.596 338.895 604.255 347.921C603.885 357.73 602.813 367.479 599.918 376.908C599.047 379.744 597.815 382.537 596.32 385.1C590.728 394.682 582.264 394.547 576.727 384.898C576.065 383.745 575.437 382.572 574.638 381.056Z" fill="#D1B2E9"/>
<path d="M588.454 292.969C577.908 293.755 570.602 288.742 566.836 278.509C563.988 270.77 566.209 262.61 572.451 257.88C579.797 252.314 589.737 252.315 597.074 257.813C601.241 260.936 603.016 265.251 603.577 270.238C604.658 279.847 597.97 290.152 588.454 292.969Z" fill="#D1B2E9"/>
<path d="M37.6393 445.277C53.9363 449.699 70.384 448.031 86.5046 449.902C87.1148 449.972 87.6691 450.526 88.0558 450.745C86.8878 454.299 84.14 454.646 81.8837 455.184C65.3488 459.13 48.5942 461.522 31.5569 461.17C23.175 460.996 18.3928 454.09 20.6669 446.044C21.455 443.256 23.4482 442.375 26.0238 442.821C29.7843 443.473 33.5037 444.362 37.6393 445.277Z" fill="#D1B2E9"/>
<path d="M321.205 452.022C329.449 450.404 337.365 449.28 344.957 446.703C345.115 446.65 345.278 446.614 345.438 446.569C351.575 444.868 355.903 445.774 357.053 448.999C358.298 452.492 353.33 459.89 348.764 461.249C342.983 462.971 336.984 463.442 331.029 463.912C319.728 464.805 308.417 464.995 297.279 462.288C295.694 461.903 294.094 461.288 292.715 460.433C291.416 459.629 290.61 458.202 290.947 456.568C291.348 454.619 293.066 454.831 294.53 454.627C303.247 453.407 312.185 454.517 321.205 452.022Z" fill="#D1B2E9"/>
<path d="M334.478 407.275C339.017 406.649 343.066 405.381 347.261 405.719C351.707 406.077 353.068 408.487 351.359 412.553C349.789 416.29 347.47 418.95 343.141 419.694C329.683 422.009 316.214 423.955 302.518 422.293C300.388 422.035 298.234 421.529 296.235 420.761C293.759 419.811 290.625 418.598 291.059 415.476C291.559 411.88 295.104 412.698 297.608 412.738C310.059 412.933 321.896 409.066 334.478 407.275Z" fill="#D1B2E9"/>
<path d="M79.1466 417.488C63.0446 419.567 47.4915 417.643 31.9455 416.015C27.5429 415.555 24.666 410.585 25.7913 405.665C26.9057 400.793 30.5872 401.489 34.1363 402.31C49.0386 405.76 63.9388 409.176 79.3082 409.901C81.8669 410.021 85.5523 409.995 85.7982 413.228C86.0818 416.957 82.2603 416.847 79.1466 417.488Z" fill="#D1B2E9"/>
<path d="M130.904 406.829C125.144 405.35 122.481 402.008 121.778 395.602C121.076 389.193 122.872 383.375 126.533 378.175C129.56 373.874 134.423 372.269 138.747 373.71C143.876 375.419 145.303 379.275 145.3 384.228C145.295 394.829 139.629 404.063 130.904 406.829Z" fill="#D1B2E9"/>
<path d="M177.11 442.956C172.743 437.89 168.528 433.166 164.494 428.292C159.814 422.636 160.722 417.746 167.538 414.796C176.147 411.069 185.257 410.131 194.379 412.836C200.787 414.735 201.901 418.637 198.144 424.191C193.943 430.399 189.661 436.557 185.637 442.879C182.099 448.439 181.546 448.557 177.11 442.956ZM169.297 424.544C172.708 429.175 176.447 433.505 180.956 437.879C185.326 432.171 188.962 426.67 192.384 420.247C184.014 418.237 176.81 418.959 169.778 421.912C168.957 422.256 168.624 423.05 169.297 424.544Z" fill="#D1B2E9"/>
<path d="M225.773 385.107C231.116 386.078 235.995 387.151 239.341 391.373C241.289 393.83 242.45 396.428 239.628 399.444C236.798 397.641 235.554 394.303 232.131 393.231C224.784 390.931 218.452 392.97 212.335 396.82C210.714 397.84 209.224 400.768 207.116 397.757C205.466 395.401 206.047 393.049 208.376 391.212C213.363 387.277 219.107 385.447 225.773 385.107Z" fill="#D1B2E9"/>
</svg>
