<svg width="338" height="190" viewBox="0 0 338 190" fill="none" xmlns="http://www.w3.org/2000/svg">
<path d="M108.175 21.1443C95.7116 30.214 89.8018 43.4579 83.7839 56.4495C76.4602 72.2598 71.4012 88.7869 70.2809 106.356C70.0885 109.373 69.6933 113.906 66.0962 113.889C62.1901 113.87 61.7426 109.544 61.7344 106.119C61.6603 75.2001 71.1305 47.062 87.2214 21.0359C92.2825 12.8499 99.2675 6.53308 108.929 3.45755C120.931 -0.363308 130.574 3.14769 138.814 11.8767C142.133 15.3928 145.143 19.2003 148.289 22.8794C148.723 23.3867 149.117 23.9278 149.548 24.4373C158.11 34.5478 162.49 34.6252 171.529 24.8683C179.531 16.2305 188.243 8.31306 199.233 3.82054C217.644 -3.70486 234.264 0.0784303 248.684 13.4805C268.448 31.8489 280.169 54.2431 281.675 81.4507C282.286 92.5067 279.605 102.963 274.372 112.706C271.567 117.93 267.494 118.097 263.355 112.713C258.809 106.801 256.288 100.443 257.463 92.3157C261.335 65.551 255.019 41.4518 233.879 23.5967C219.74 11.6548 206.992 13.4274 192.152 25.1386C185.29 30.5535 180.294 37.8086 173.495 43.2348C164.565 50.3628 158.285 50.3859 149.181 43.4809C145.289 40.5289 141.961 37.0526 139.011 33.1812C136.887 30.3941 134.784 27.5853 132.535 24.8998C125.122 16.0448 118.296 14.9446 108.175 21.1443Z" fill="#1E0E59"/>
<path d="M17.5819 170.738C33.9203 175.167 50.4096 173.496 66.5711 175.37C67.1829 175.441 67.7385 175.996 68.1262 176.215C66.9552 179.776 64.2006 180.123 61.9385 180.662C45.3617 184.615 28.5646 187.011 11.4842 186.658C3.081 186.484 -1.71338 179.566 0.566499 171.506C1.35659 168.713 3.3549 167.831 5.93703 168.278C9.70707 168.931 13.4359 169.821 17.5819 170.738Z" fill="#1E0E59"/>
<path d="M301.866 177.495C310.131 175.874 318.068 174.747 325.679 172.167C325.837 172.113 326 172.077 326.161 172.032C332.313 170.328 336.652 171.235 337.805 174.466C339.054 177.965 334.073 185.376 329.495 186.738C323.7 188.462 317.686 188.934 311.715 189.405C300.386 190.3 289.046 190.49 277.88 187.778C276.291 187.392 274.686 186.776 273.304 185.92C272.002 185.114 271.194 183.685 271.531 182.049C271.934 180.096 273.656 180.309 275.124 180.104C283.863 178.882 292.824 179.993 301.866 177.495Z" fill="#1E0E59"/>
<path d="M315.174 132.671C319.723 132.044 323.783 130.773 327.989 131.112C332.445 131.471 333.81 133.885 332.097 137.957C330.523 141.701 328.198 144.366 323.859 145.111C310.366 147.43 296.863 149.38 283.132 147.714C280.997 147.455 278.837 146.949 276.833 146.18C274.351 145.228 271.209 144.013 271.644 140.886C272.145 137.283 275.699 138.103 278.209 138.143C290.692 138.338 302.559 134.464 315.174 132.671Z" fill="#1E0E59"/>
<path d="M59.1944 142.901C43.0517 144.984 27.4591 143.056 11.8737 141.426C7.45993 140.964 4.57575 135.986 5.70392 131.058C6.82117 126.178 10.5119 126.875 14.07 127.697C29.0102 131.153 43.9481 134.574 59.3564 135.301C61.9216 135.422 65.6164 135.396 65.8629 138.633C66.1472 142.369 62.316 142.259 59.1944 142.901Z" fill="#1E0E59"/>
<path d="M111.083 132.224C105.308 130.742 102.639 127.395 101.934 120.978C101.23 114.558 103.03 108.73 106.701 103.52C109.736 99.2116 114.611 97.6041 118.946 99.0476C124.088 100.76 125.518 104.622 125.516 109.584C125.511 120.203 119.83 129.453 111.083 132.224Z" fill="#1E0E59"/>
<path d="M157.407 168.413C153.028 163.339 148.802 158.606 144.759 153.723C140.067 148.058 140.976 143.159 147.81 140.204C156.441 136.471 165.574 135.532 174.72 138.241C181.143 140.143 182.261 144.052 178.493 149.615C174.282 155.834 169.989 162.003 165.955 168.335C162.408 173.906 161.853 174.024 157.407 168.413ZM149.573 149.97C152.993 154.608 156.742 158.945 161.262 163.327C165.643 157.61 169.288 152.099 172.719 145.665C164.328 143.651 157.106 144.374 150.055 147.332C149.233 147.677 148.899 148.473 149.573 149.97Z" fill="#1E0E59"/>
<path d="M206.193 110.465C211.549 111.437 216.441 112.512 219.795 116.741C221.747 119.203 222.911 121.805 220.083 124.826C217.245 123.02 215.998 119.676 212.566 118.602C205.201 116.299 198.853 118.341 192.72 122.198C191.095 123.22 189.602 126.152 187.488 123.136C185.834 120.776 186.417 118.42 188.751 116.58C193.751 112.638 199.509 110.805 206.193 110.465Z" fill="#1E0E59"/>
</svg>
