<svg width="250" height="250" viewBox="0 0 250 250" fill="none" xmlns="http://www.w3.org/2000/svg">
<g clip-path="url(#clip0_334_153)">
<path d="M-0.375 -0.375H250.375V250.375H-0.375V-0.375Z" fill="#FD9D24"/>
<path d="M17.4028 30.8783C15.9723 31.6456 11.9132 32.7672 10.4966 33.4755V26.6873C12.3855 25.9199 17.6389 23.3818 19.4098 21.4338H26.5521V69.2463H17.4028V30.8783Z" fill="white"/>
<path d="M29.9756 30.8784C28.5589 31.6457 24.486 32.7673 23.0693 33.4756V26.6874C24.9582 25.92 30.2082 23.3818 31.9825 21.4339H39.1249V69.2464H29.9756V30.8784ZM66.9617 33.8332V27.3124C66.9617 23.5659 68.1596 21.1943 72.17 21.1943C75.9166 21.1943 77.1145 23.2777 77.1145 26.4548V27.9895H73.9096V26.4096C73.9096 24.8749 73.8853 23.6318 72.1943 23.6318C70.5034 23.6318 70.3193 24.9409 70.3193 26.611V34.5346C70.3193 36.5207 70.7256 37.4686 72.1943 37.4686C73.8402 37.4686 73.9096 36.1804 73.9096 34.5554V32.9096H77.1145V34.3749C77.1145 37.6041 76.0311 39.9304 72.17 39.9304C68.1596 39.9304 66.9617 37.3992 66.9617 33.8332ZM78.6075 21.3992H81.9027V39.6804H78.6075V21.3992ZM83.7985 21.3992H88.111C92.5555 21.3992 93.9096 23.1804 93.9096 27.0867V33.7429C93.9096 37.7603 92.5207 39.6804 88.2464 39.6804H83.7985V21.3992ZM88.1561 37.3541C90.4339 37.3541 90.5242 36.1353 90.5242 33.8575V26.861C90.5242 24.67 90.2985 23.7673 88.111 23.7673H87.118V37.3541H88.1561ZM98.0416 21.3992H101.608L105.264 39.6804H102.174L101.448 35.4582H98.2638L97.5173 39.6804H94.3923L98.0416 21.3992ZM101.087 33.3332L99.8471 25.6596L98.611 33.3332H101.087ZM106.167 21.3992H110.476C114.924 21.3992 116.278 23.1804 116.278 27.0867V33.7429C116.278 37.7603 114.889 39.6804 110.611 39.6804H106.167V21.3992ZM110.521 37.3541C112.802 37.3541 112.892 36.1353 112.892 33.8575V26.861C112.892 24.67 112.667 23.7673 110.462 23.7673H109.469V37.3541H110.521ZM117.812 21.3992H125.486V23.7464H121.128V29.0034H124.559V31.3298H121.128V37.3992H125.531V39.6804H117.812V21.3992ZM126.094 34.3541L128.962 33.7881C129.052 35.9548 129.569 37.3541 131.045 37.3541C132.104 37.3541 132.555 36.6318 132.555 35.6388C132.555 34.0589 131.743 33.1804 130.549 32.1423L128.246 30.1318C126.937 29.0034 126.125 27.7395 126.125 25.7082C126.125 22.8193 127.93 21.1943 130.84 21.1943C134.271 21.1943 135.243 23.4964 135.424 26.1596L132.555 26.6561C132.489 24.9409 132.239 23.6561 130.774 23.6561C129.781 23.6561 129.239 24.3992 129.239 25.3714C129.239 26.611 129.757 27.2881 130.729 28.1249L132.986 30.1318C134.476 31.42 135.719 33.0207 135.719 35.4374C135.719 38.0763 133.868 39.927 131.135 39.927C127.809 39.9304 126.229 37.986 126.094 34.3541ZM141.319 21.3992H148.993V23.7464H144.646V29.0034H148.076V31.3298H144.646V37.3992H149.049V39.6804H141.319V21.3992ZM66.9617 63.6943V57.1735C66.9617 53.427 68.1596 51.0554 72.17 51.0554C75.9166 51.0554 77.1145 53.1388 77.1145 56.3159V57.8506H73.9096V56.2707C73.9096 54.736 73.8853 53.4929 72.1943 53.4929C70.5034 53.4929 70.3193 54.802 70.3193 56.4721V64.3957C70.3193 66.3818 70.7256 67.3298 72.1943 67.3298C73.8402 67.3298 73.9096 66.0416 73.9096 64.4166V62.7707H77.1145V64.236C77.1145 67.4652 76.0311 69.7916 72.17 69.7916C68.1596 69.7916 66.9617 67.2603 66.9617 63.6943ZM78.2256 63.8089V56.9443C78.2256 53.2429 79.5798 51.0416 83.5068 51.0416C87.4339 51.0416 88.7673 53.2325 88.7673 56.9443V63.8054C88.7673 67.4825 87.4131 69.7846 83.5068 69.7846C79.6006 69.7846 78.2256 67.5103 78.2256 63.8089ZM85.3818 64.5832V56.1805C85.3818 54.6457 85.1318 53.4929 83.5068 53.4929C81.8818 53.4929 81.5971 54.6457 81.5971 56.1805V64.5832C81.5971 66.0971 81.8471 67.3159 83.493 67.3159C85.1388 67.3159 85.3818 66.111 85.3818 64.5832ZM90.5693 51.2603H94.0416L96.6353 63.92L99.3055 51.2603H102.667L103.014 69.5416H100.531L100.26 56.8332L97.6631 69.5416H95.6561L93.0138 56.7881L92.7673 69.5416H90.2603L90.5693 51.2603ZM104.653 63.6284V51.2603H107.903V64.0103C107.903 65.7464 108.108 67.3054 109.799 67.3054C111.489 67.3054 111.719 65.7499 111.719 64.0103V51.2603H114.948V63.6284C114.948 67.4652 113.885 69.7881 109.799 69.7881C105.712 69.7881 104.653 67.4652 104.653 63.6284ZM116.639 51.2603H118.962L123.41 61.677V51.2603H126.163V69.5416H123.958L119.489 58.618V69.5416H116.646L116.639 51.2603ZM128.104 51.2603H131.399V69.5416H128.104V51.2603ZM133.295 51.2603H137.604C142.052 51.2603 143.406 53.0416 143.406 56.9478V63.6041C143.406 67.6214 142.017 69.5416 137.739 69.5416H133.295V51.2603ZM137.649 67.2325C139.93 67.2325 140.021 66.0138 140.021 63.736V56.7221C140.021 54.5311 139.795 53.6284 137.59 53.6284H136.597V67.2152L137.649 67.2325ZM147.535 51.2603H151.101L154.757 69.5416H151.667L150.944 65.3193H147.76L147.017 69.5416H143.892L147.535 51.2603ZM150.583 63.1943L149.34 55.5207L148.101 63.1943H150.583ZM155.66 51.2603H159.972C164.417 51.2603 165.771 53.0416 165.771 56.9478V63.6041C165.771 67.6214 164.382 69.5416 160.108 69.5416H155.66V51.2603ZM160.017 67.2325C162.295 67.2325 162.385 66.0138 162.385 63.736V56.7221C162.385 54.5311 162.16 53.6284 159.972 53.6284H158.979V67.2152L160.017 67.2325ZM167.305 51.2603H174.979V53.6075H170.625V58.8645H174.055V61.1909H170.625V67.2603H175.024V69.5416H167.305V51.2603ZM175.59 64.2152L178.455 63.6492C178.545 65.8159 179.066 67.2152 180.538 67.2152C181.601 67.2152 182.052 66.493 182.052 65.4999C182.052 63.92 181.239 63.0416 180.042 62.0034L177.739 59.9929C176.43 58.8645 175.618 57.6006 175.618 55.5693C175.618 52.6804 177.424 51.0554 180.337 51.0554C183.767 51.0554 184.736 53.3575 184.917 56.0207L182.052 56.5173C181.983 54.802 181.736 53.5173 180.267 53.5173C179.274 53.5173 178.733 54.2603 178.733 55.2325C178.733 56.4721 179.253 57.1492 180.222 57.986L182.503 59.9929C183.993 61.2811 185.233 62.8818 185.233 65.2985C185.233 67.9374 183.382 69.7881 180.653 69.7881C177.305 69.7916 175.726 67.8471 175.59 64.2152ZM66.8054 94.0763L69.6735 93.5103C69.7638 95.677 70.2811 97.0763 71.7568 97.0763C72.8193 97.0763 73.2707 96.3541 73.2707 95.361C73.2707 93.7812 72.4582 92.9027 71.2638 91.8645L68.9617 89.8541C67.6492 88.7256 66.8367 87.4617 66.8367 85.4305C66.8367 82.5416 68.6457 80.9166 71.5555 80.9166C74.986 80.9166 75.9582 83.2186 76.1388 85.8818L73.2638 86.3784C73.1978 84.6631 72.9478 83.3784 71.4825 83.3784C70.4895 83.3784 69.9443 84.1214 69.9443 85.0936C69.9443 86.3332 70.4652 87.0103 71.4374 87.8471L73.7152 89.8541C75.2048 91.1423 76.4478 92.743 76.4478 95.1596C76.4478 97.7985 74.5971 99.6492 71.8645 99.6492C68.5207 99.6527 66.9409 97.7082 66.8054 94.0763ZM77.3436 93.4895V81.1214H80.5936V93.8714C80.5936 95.6075 80.7985 97.1666 82.4895 97.1666C84.1805 97.1666 84.4096 95.611 84.4096 93.8714V81.1214H87.6388V93.4895C87.6388 97.3263 86.5763 99.6492 82.4895 99.6492C78.4027 99.6492 77.3436 97.3263 77.3436 93.4895ZM88.8888 94.0763L91.7534 93.5103C91.8436 95.677 92.3645 97.0763 93.8367 97.0763C94.8992 97.0763 95.3506 96.3541 95.3506 95.361C95.3506 93.7812 94.5381 92.9027 93.3402 91.8645L91.0381 89.8541C89.7291 88.7256 88.9166 87.4617 88.9166 85.4305C88.9166 82.5416 90.7221 80.9166 93.6353 80.9166C97.0659 80.9166 98.0381 83.2186 98.2152 85.8818L95.3506 86.3784C95.2811 84.6631 95.0346 83.3784 93.5659 83.3784C92.5728 83.3784 92.0311 84.1214 92.0311 85.0936C92.0311 86.3332 92.552 87.0103 93.5207 87.8471L95.802 89.8541C97.2916 91.1423 98.5311 92.743 98.5311 95.1596C98.5311 97.7985 96.6804 99.6492 93.9513 99.6492C90.5936 99.6527 89.0138 97.7082 88.8888 94.0763ZM101.389 83.5798H98.4756V81.1214H107.573V83.5798H104.722V99.4027H101.389V83.5798ZM108.309 81.1214H115.972V83.4686H111.628V88.7256H115.059V91.052H111.628V97.1214H116.028V99.4027H108.309V81.1214ZM117.045 81.1214H119.368L123.816 91.5381V81.1214H126.569V99.4027H124.358L119.889 88.4791V99.4027H117.045V81.1214ZM130.246 83.5798H127.337V81.1214H136.43V83.5798H133.587V99.4027H130.246V83.5798ZM139.455 81.1214H143.021L146.677 99.4027H143.587L142.864 95.1804H139.68L138.937 99.4027H135.812L139.455 81.1214ZM142.503 93.0555L141.26 85.3818L140.021 93.0555H142.503ZM141.691 75.3471H144.816L142.128 79.861H140.347L141.691 75.3471ZM146.045 81.1214H148.979L151.41 94.052L153.687 81.1214H156.691L153.01 99.4027H149.739L146.045 81.1214ZM157.639 81.1214H165.312V83.4686H160.941V88.7256H164.371V91.052H160.941V97.1214H165.344V99.4027H157.639V81.1214ZM166.448 81.1214H169.743V99.4027H166.448V81.1214ZM171.18 94.0763L174.045 93.5103C174.135 95.677 174.656 97.0763 176.128 97.0763C177.191 97.0763 177.642 96.3541 177.642 95.361C177.642 93.7812 176.83 92.9027 175.632 91.8645L173.33 89.8541C172.021 88.7256 171.208 87.4617 171.208 85.4305C171.208 82.5416 173.014 80.9166 175.927 80.9166C179.358 80.9166 180.326 83.2186 180.51 85.8818L177.642 86.3784C177.573 84.6631 177.326 83.3784 175.858 83.3784C174.864 83.3784 174.323 84.1214 174.323 85.0936C174.323 86.3332 174.844 87.0103 175.812 87.8471L178.094 89.8541C179.583 91.1423 180.823 92.743 180.823 95.1596C180.823 97.7985 178.972 99.6492 176.243 99.6492C172.917 99.6527 171.323 97.7082 171.18 94.0763ZM57.9166 196.528H90.8124C90.9682 196.528 91.1208 196.483 91.2515 196.398C91.3821 196.313 91.4853 196.192 91.5482 196.05C91.6112 195.907 91.6313 195.749 91.6061 195.596C91.5808 195.442 91.5114 195.299 91.4061 195.184L91.361 195.135L74.9999 173.958L74.8402 173.785C74.7646 173.701 74.6724 173.635 74.5695 173.589C74.4666 173.544 74.3554 173.521 74.243 173.521C74.0479 173.525 73.8608 173.599 73.7152 173.729L73.6145 173.844L73.4617 174.014L57.4895 194.969L57.2429 195.267C57.161 195.389 57.1138 195.531 57.1063 195.678C57.0989 195.824 57.1316 195.97 57.2008 196.1C57.2701 196.23 57.3733 196.338 57.4993 196.413C57.6254 196.488 57.7697 196.528 57.9166 196.528ZM90.7117 199.517H57.7534C57.6471 199.517 57.5419 199.538 57.4438 199.579C57.3456 199.62 57.2564 199.679 57.1813 199.754C57.1062 199.829 57.0466 199.919 57.0059 200.017C56.9653 200.115 56.9443 200.22 56.9443 200.326V226.118C56.9439 226.224 56.9645 226.33 57.0049 226.429C57.0454 226.527 57.1049 226.617 57.1801 226.692C57.2552 226.768 57.3446 226.828 57.443 226.869C57.5413 226.909 57.6468 226.93 57.7534 226.93H68.361V210.701C68.3605 210.595 68.381 210.49 68.4213 210.392C68.4616 210.294 68.5209 210.205 68.5957 210.129C68.6706 210.054 68.7595 209.995 68.8575 209.954C68.9554 209.913 69.0605 209.892 69.1666 209.892H79.0138C79.2283 209.892 79.4341 209.977 79.5859 210.129C79.7376 210.281 79.8228 210.487 79.8228 210.701V226.93H90.7117C90.9266 226.93 91.1324 226.844 91.284 226.691C91.4356 226.539 91.5207 226.333 91.5207 226.118V200.326C91.5207 200.22 91.4998 200.115 91.4591 200.017C91.4185 199.919 91.3589 199.829 91.2838 199.754C91.2086 199.679 91.1195 199.62 91.0213 199.579C90.9231 199.538 90.8179 199.517 90.7117 199.517ZM204.628 192.767H171.989C171.886 192.765 171.783 192.783 171.687 192.821C171.59 192.859 171.503 192.915 171.428 192.987C171.354 193.059 171.295 193.146 171.254 193.241C171.213 193.336 171.192 193.438 171.191 193.542V226.483C171.195 226.691 171.281 226.889 171.43 227.035C171.58 227.18 171.781 227.26 171.989 227.257H204.628C204.732 227.259 204.834 227.24 204.931 227.202C205.027 227.164 205.114 227.108 205.189 227.036C205.263 226.964 205.322 226.878 205.363 226.783C205.404 226.688 205.426 226.586 205.427 226.483V193.542C205.426 193.438 205.405 193.336 205.364 193.241C205.323 193.146 205.264 193.059 205.19 192.987C205.115 192.915 205.027 192.859 204.931 192.821C204.835 192.783 204.732 192.765 204.628 192.767ZM186.778 214.271C186.777 214.374 186.756 214.477 186.716 214.572C186.676 214.668 186.617 214.754 186.543 214.827C186.469 214.9 186.381 214.957 186.285 214.996C186.189 215.034 186.086 215.053 185.983 215.052H176.236C176.132 215.053 176.029 215.034 175.932 214.996C175.836 214.957 175.748 214.9 175.673 214.828C175.599 214.755 175.539 214.668 175.498 214.573C175.457 214.477 175.435 214.375 175.434 214.271V208.351C175.435 208.247 175.457 208.144 175.498 208.049C175.539 207.954 175.599 207.867 175.673 207.795C175.748 207.723 175.836 207.666 175.933 207.628C176.029 207.59 176.132 207.571 176.236 207.573H185.983C186.086 207.571 186.189 207.59 186.285 207.628C186.381 207.666 186.469 207.723 186.543 207.795C186.617 207.868 186.676 207.954 186.716 208.049C186.756 208.145 186.777 208.247 186.778 208.351V214.271ZM186.778 203.326C186.775 203.535 186.69 203.734 186.541 203.879C186.392 204.025 186.191 204.106 185.983 204.104H176.236C176.027 204.107 175.825 204.027 175.674 203.881C175.524 203.735 175.438 203.536 175.434 203.326V197.399C175.438 197.19 175.524 196.99 175.674 196.845C175.825 196.699 176.027 196.619 176.236 196.621H185.983C186.086 196.62 186.188 196.639 186.284 196.677C186.38 196.716 186.468 196.773 186.542 196.845C186.616 196.917 186.674 197.004 186.715 197.099C186.755 197.194 186.777 197.296 186.778 197.399V203.326ZM201.674 214.271C201.673 214.375 201.652 214.477 201.611 214.573C201.571 214.669 201.512 214.756 201.438 214.828C201.363 214.901 201.275 214.958 201.179 214.997C201.082 215.035 200.979 215.054 200.875 215.052H191.132C191.028 215.054 190.925 215.035 190.828 214.997C190.731 214.958 190.644 214.901 190.569 214.828C190.495 214.756 190.436 214.669 190.395 214.573C190.355 214.477 190.334 214.375 190.333 214.271V208.351C190.334 208.247 190.356 208.145 190.396 208.049C190.437 207.954 190.496 207.868 190.57 207.795C190.645 207.723 190.733 207.666 190.829 207.628C190.925 207.59 191.028 207.571 191.132 207.573H200.875C200.979 207.571 201.081 207.59 201.178 207.628C201.274 207.666 201.362 207.723 201.436 207.795C201.511 207.868 201.57 207.954 201.61 208.049C201.651 208.145 201.673 208.247 201.674 208.351V214.271ZM201.674 203.326C201.672 203.43 201.65 203.532 201.61 203.627C201.569 203.722 201.509 203.808 201.435 203.881C201.361 203.953 201.273 204.01 201.177 204.048C201.081 204.086 200.978 204.105 200.875 204.104H191.132C191.028 204.105 190.926 204.086 190.829 204.048C190.733 204.01 190.646 203.953 190.571 203.881C190.497 203.808 190.438 203.722 190.397 203.627C190.356 203.532 190.335 203.43 190.333 203.326V197.399C190.334 197.296 190.356 197.193 190.396 197.098C190.437 197.002 190.496 196.916 190.57 196.844C190.645 196.772 190.733 196.715 190.829 196.676C190.925 196.638 191.028 196.62 191.132 196.621H200.875C200.979 196.62 201.081 196.638 201.178 196.676C201.274 196.715 201.362 196.772 201.436 196.844C201.511 196.916 201.57 197.002 201.61 197.098C201.651 197.193 201.673 197.296 201.674 197.399V203.326ZM128.795 116.319H96.8749C96.7725 116.319 96.671 116.34 96.5764 116.379C96.4819 116.418 96.396 116.476 96.3237 116.548C96.2514 116.621 96.1942 116.707 96.1553 116.802C96.1164 116.897 96.0967 116.998 96.0971 117.101V226.191C96.0971 226.397 96.1789 226.596 96.3247 226.742C96.4705 226.888 96.6683 226.971 96.8749 226.972H128.802C129.009 226.971 129.208 226.889 129.355 226.743C129.502 226.596 129.585 226.398 129.587 226.191V117.083C129.586 116.876 129.503 116.677 129.356 116.531C129.209 116.384 129.01 116.302 128.802 116.302M109.809 214.542C109.809 214.652 109.765 214.759 109.687 214.837C109.609 214.916 109.503 214.961 109.392 214.962H102.083C101.972 214.961 101.866 214.916 101.788 214.837C101.71 214.759 101.667 214.652 101.667 214.542V206.396C101.667 206.285 101.71 206.179 101.789 206.101C101.867 206.023 101.973 205.979 102.083 205.979H109.375C109.485 205.979 109.591 206.023 109.67 206.101C109.748 206.179 109.792 206.285 109.792 206.396L109.809 214.542ZM109.809 195.833C109.809 195.888 109.799 195.942 109.778 195.993C109.757 196.044 109.727 196.09 109.688 196.129C109.649 196.168 109.603 196.198 109.552 196.219C109.501 196.24 109.447 196.25 109.392 196.25H102.083C102.028 196.25 101.974 196.24 101.923 196.219C101.872 196.198 101.826 196.168 101.788 196.129C101.749 196.09 101.718 196.044 101.697 195.993C101.677 195.942 101.666 195.888 101.667 195.833V187.687C101.666 187.633 101.677 187.578 101.697 187.527C101.718 187.477 101.749 187.431 101.788 187.392C101.826 187.353 101.872 187.322 101.923 187.302C101.974 187.281 102.028 187.27 102.083 187.271H109.375C109.43 187.27 109.484 187.281 109.535 187.302C109.586 187.322 109.632 187.353 109.671 187.392C109.709 187.431 109.74 187.477 109.761 187.527C109.782 187.578 109.792 187.633 109.792 187.687L109.809 195.833ZM109.809 177.128C109.809 177.239 109.765 177.345 109.687 177.423C109.609 177.501 109.503 177.545 109.392 177.545H102.083C101.973 177.545 101.867 177.501 101.789 177.423C101.71 177.345 101.667 177.239 101.667 177.128V168.979C101.667 168.868 101.71 168.762 101.788 168.683C101.866 168.605 101.972 168.56 102.083 168.559H109.375C109.486 168.56 109.592 168.605 109.67 168.683C109.748 168.762 109.792 168.868 109.792 168.979L109.809 177.128ZM109.809 158.417C109.809 158.527 109.765 158.634 109.687 158.712C109.609 158.791 109.503 158.836 109.392 158.837H102.083C101.972 158.836 101.866 158.791 101.788 158.712C101.71 158.634 101.667 158.527 101.667 158.417V150.267C101.667 150.213 101.677 150.159 101.698 150.108C101.719 150.058 101.75 150.012 101.789 149.974C101.828 149.935 101.874 149.905 101.924 149.885C101.975 149.864 102.029 149.854 102.083 149.854H109.375C109.429 149.854 109.484 149.864 109.534 149.885C109.585 149.905 109.631 149.935 109.669 149.974C109.708 150.012 109.739 150.058 109.76 150.108C109.781 150.159 109.792 150.213 109.792 150.267L109.809 158.417ZM109.809 139.712C109.809 139.822 109.765 139.928 109.687 140.006C109.609 140.084 109.503 140.128 109.392 140.128H102.083C101.973 140.128 101.867 140.084 101.789 140.006C101.71 139.928 101.667 139.822 101.667 139.712V131.562C101.667 131.452 101.71 131.346 101.789 131.268C101.867 131.19 101.973 131.146 102.083 131.146H109.375C109.485 131.146 109.591 131.19 109.67 131.268C109.748 131.346 109.792 131.452 109.792 131.562L109.809 139.712ZM124.146 214.542C124.146 214.597 124.135 214.652 124.113 214.703C124.092 214.754 124.061 214.801 124.021 214.84C123.982 214.879 123.935 214.91 123.884 214.931C123.833 214.952 123.778 214.962 123.722 214.962H116.43C116.319 214.962 116.212 214.917 116.133 214.839C116.055 214.76 116.01 214.653 116.01 214.542V206.396C116.01 206.341 116.021 206.286 116.042 206.235C116.064 206.185 116.095 206.139 116.134 206.1C116.173 206.061 116.219 206.031 116.27 206.01C116.321 205.989 116.375 205.979 116.43 205.979H123.722C123.777 205.978 123.832 205.988 123.884 206.009C123.935 206.029 123.982 206.06 124.021 206.099C124.061 206.137 124.092 206.184 124.113 206.235C124.135 206.286 124.146 206.34 124.146 206.396V214.542ZM124.146 195.833C124.146 195.889 124.135 195.943 124.113 195.994C124.092 196.045 124.061 196.092 124.021 196.13C123.982 196.169 123.935 196.2 123.884 196.22C123.832 196.241 123.777 196.251 123.722 196.25H116.43C116.375 196.251 116.321 196.241 116.269 196.22C116.218 196.2 116.172 196.169 116.133 196.13C116.093 196.091 116.062 196.045 116.041 195.994C116.02 195.943 116.01 195.888 116.01 195.833V187.687C116.01 187.632 116.02 187.578 116.041 187.527C116.062 187.476 116.093 187.429 116.133 187.39C116.172 187.352 116.218 187.321 116.269 187.3C116.321 187.28 116.375 187.27 116.43 187.271H123.722C123.777 187.27 123.832 187.28 123.884 187.3C123.935 187.321 123.982 187.352 124.021 187.39C124.061 187.429 124.092 187.475 124.113 187.526C124.135 187.577 124.146 187.632 124.146 187.687V195.833ZM124.146 177.128C124.145 177.184 124.134 177.238 124.112 177.289C124.091 177.34 124.06 177.386 124.02 177.424C123.981 177.463 123.934 177.494 123.883 177.514C123.832 177.535 123.777 177.545 123.722 177.545H116.43C116.32 177.545 116.213 177.501 116.135 177.423C116.056 177.345 116.011 177.239 116.01 177.128V168.979C116.01 168.868 116.055 168.761 116.133 168.682C116.212 168.603 116.319 168.559 116.43 168.559H123.722C123.778 168.558 123.833 168.569 123.884 168.59C123.935 168.611 123.982 168.642 124.021 168.681C124.061 168.72 124.092 168.766 124.113 168.817C124.135 168.869 124.146 168.924 124.146 168.979V177.128ZM124.146 158.417C124.146 158.472 124.135 158.527 124.113 158.578C124.092 158.629 124.061 158.676 124.021 158.715C123.982 158.754 123.935 158.785 123.884 158.806C123.833 158.827 123.778 158.837 123.722 158.837H116.43C116.319 158.837 116.212 158.792 116.133 158.714C116.055 158.635 116.01 158.528 116.01 158.417V150.267C116.011 150.213 116.022 150.158 116.043 150.108C116.065 150.058 116.096 150.012 116.135 149.974C116.174 149.935 116.22 149.905 116.271 149.884C116.321 149.864 116.376 149.854 116.43 149.854H123.722C123.777 149.853 123.832 149.863 123.883 149.883C123.934 149.904 123.981 149.934 124.02 149.972C124.059 150.011 124.091 150.057 124.112 150.107C124.134 150.158 124.145 150.212 124.146 150.267V158.417ZM124.146 139.712C124.145 139.767 124.134 139.821 124.112 139.872C124.091 139.923 124.06 139.969 124.02 140.008C123.981 140.046 123.934 140.077 123.883 140.098C123.832 140.118 123.777 140.129 123.722 140.128H116.43C116.32 140.128 116.213 140.085 116.135 140.007C116.056 139.928 116.011 139.823 116.01 139.712V131.562C116.01 131.507 116.021 131.453 116.042 131.402C116.064 131.351 116.095 131.305 116.134 131.267C116.173 131.228 116.219 131.197 116.27 131.176C116.321 131.156 116.375 131.145 116.43 131.146H123.722C123.777 131.145 123.832 131.155 123.884 131.175C123.935 131.196 123.982 131.226 124.021 131.265C124.061 131.304 124.092 131.35 124.113 131.401C124.135 131.452 124.146 131.507 124.146 131.562V139.712ZM205.392 189.451C205.393 189.538 205.376 189.623 205.343 189.703C205.31 189.783 205.262 189.855 205.201 189.916C205.14 189.977 205.068 190.026 204.988 190.059C204.908 190.091 204.822 190.108 204.736 190.108H171.899C171.725 190.108 171.558 190.038 171.435 189.915C171.312 189.792 171.243 189.625 171.243 189.451V182.885C171.243 182.711 171.312 182.544 171.435 182.421C171.558 182.298 171.725 182.229 171.899 182.229H204.736C204.91 182.229 205.077 182.298 205.2 182.421C205.323 182.544 205.392 182.711 205.392 182.885V189.451ZM167.361 136.906C167.328 136.778 167.264 136.661 167.176 136.563C167.087 136.465 166.976 136.39 166.852 136.345C166.728 136.299 166.595 136.285 166.464 136.302C166.333 136.319 166.208 136.368 166.101 136.444L166.042 136.486L165.774 136.833L134.392 176.628L134.246 176.823C134.079 176.987 133.982 177.21 133.976 177.444V226.354C133.976 226.457 133.996 226.558 134.035 226.653C134.074 226.747 134.132 226.833 134.205 226.905C134.277 226.978 134.363 227.035 134.458 227.074C134.553 227.113 134.654 227.132 134.757 227.132H166.667C166.769 227.132 166.871 227.113 166.965 227.074C167.06 227.035 167.146 226.978 167.219 226.905C167.291 226.833 167.349 226.747 167.388 226.653C167.428 226.558 167.448 226.457 167.448 226.354V137.233C167.443 137.119 167.413 137.007 167.361 136.906ZM154.149 158.521L154.375 158.239C156.521 155.483 160.139 151.031 161.903 148.864L162.135 148.587C162.243 148.455 162.386 148.357 162.548 148.303C162.71 148.25 162.884 148.244 163.049 148.286C163.214 148.328 163.364 148.416 163.48 148.54C163.597 148.664 163.676 148.819 163.708 148.986V159.055C163.707 159.288 163.616 159.511 163.454 159.679C163.292 159.846 163.073 159.945 162.84 159.955H154.837C154.673 159.949 154.513 159.898 154.376 159.809C154.238 159.719 154.128 159.593 154.056 159.445C153.985 159.297 153.955 159.133 153.97 158.969C153.985 158.806 154.045 158.649 154.142 158.517L154.149 158.521ZM149.184 214.264C149.184 214.366 149.165 214.468 149.126 214.563C149.087 214.657 149.03 214.743 148.957 214.816C148.885 214.889 148.799 214.946 148.705 214.986C148.61 215.025 148.509 215.045 148.406 215.045H138.889C138.682 215.045 138.483 214.963 138.336 214.816C138.19 214.67 138.108 214.471 138.108 214.264V208.309C138.108 208.206 138.128 208.105 138.167 208.01C138.206 207.916 138.264 207.83 138.337 207.758C138.409 207.685 138.495 207.628 138.59 207.589C138.685 207.55 138.786 207.531 138.889 207.531H148.403C148.609 207.531 148.807 207.613 148.953 207.759C149.099 207.905 149.18 208.103 149.18 208.309L149.184 214.264ZM149.184 203.26C149.184 203.363 149.165 203.464 149.126 203.559C149.087 203.654 149.03 203.74 148.957 203.813C148.885 203.885 148.799 203.943 148.705 203.982C148.61 204.021 148.509 204.042 148.406 204.042H138.889C138.682 204.042 138.483 203.959 138.336 203.813C138.19 203.666 138.108 203.468 138.108 203.26V197.305C138.108 197.203 138.128 197.102 138.167 197.007C138.206 196.912 138.264 196.827 138.337 196.754C138.409 196.682 138.495 196.625 138.59 196.586C138.685 196.547 138.786 196.527 138.889 196.528H148.403C148.505 196.527 148.607 196.547 148.702 196.586C148.796 196.625 148.883 196.683 148.955 196.756C149.027 196.828 149.084 196.915 149.123 197.01C149.162 197.105 149.181 197.206 149.18 197.309L149.184 203.26ZM149.184 192.257C149.184 192.463 149.102 192.661 148.956 192.807C148.81 192.953 148.612 193.035 148.406 193.035H138.889C138.682 193.035 138.484 192.953 138.338 192.807C138.191 192.661 138.108 192.463 138.108 192.257V186.298C138.108 186.091 138.19 185.893 138.336 185.746C138.483 185.6 138.682 185.517 138.889 185.517H148.403C148.505 185.517 148.607 185.537 148.701 185.577C148.796 185.616 148.882 185.674 148.954 185.746C149.026 185.819 149.083 185.905 149.122 186C149.161 186.095 149.181 186.196 149.18 186.298L149.184 192.257ZM149.212 168.139V181.25C149.211 181.457 149.128 181.655 148.982 181.801C148.836 181.948 148.637 182.03 148.43 182.031H138.917C138.814 182.032 138.711 182.012 138.616 181.973C138.521 181.934 138.434 181.876 138.361 181.804C138.287 181.731 138.229 181.645 138.189 181.55C138.15 181.455 138.129 181.353 138.128 181.25V179.597C138.131 179.497 138.153 179.398 138.191 179.305C138.203 179.274 138.218 179.244 138.236 179.215C138.257 179.18 138.28 179.147 138.305 179.114C138.33 179.076 138.364 179.028 138.396 178.986C139.611 177.25 145.101 170.483 147.406 167.656L147.635 167.378C147.718 167.273 147.824 167.187 147.944 167.127C148.064 167.067 148.196 167.034 148.33 167.031C148.537 167.033 148.738 167.108 148.897 167.241C149.056 167.375 149.163 167.56 149.201 167.764L149.212 168.139ZM163.729 214.264C163.73 214.366 163.71 214.468 163.671 214.563C163.632 214.657 163.575 214.743 163.502 214.816C163.43 214.889 163.344 214.946 163.25 214.986C163.155 215.025 163.054 215.045 162.951 215.045H153.437C153.335 215.046 153.233 215.026 153.137 214.987C153.042 214.948 152.956 214.89 152.883 214.817C152.81 214.745 152.752 214.659 152.712 214.564C152.673 214.469 152.653 214.367 152.653 214.264V208.309C152.653 208.206 152.674 208.105 152.713 208.01C152.753 207.916 152.811 207.83 152.884 207.758C152.957 207.685 153.043 207.628 153.138 207.589C153.233 207.55 153.335 207.531 153.437 207.531H162.951C163.158 207.531 163.355 207.613 163.501 207.759C163.647 207.905 163.729 208.103 163.729 208.309V214.264ZM163.729 203.26C163.73 203.363 163.71 203.464 163.671 203.559C163.632 203.654 163.575 203.74 163.502 203.813C163.43 203.885 163.344 203.943 163.25 203.982C163.155 204.021 163.054 204.042 162.951 204.042H153.437C153.335 204.042 153.233 204.022 153.137 203.983C153.042 203.944 152.956 203.887 152.883 203.814C152.81 203.741 152.752 203.655 152.712 203.56C152.673 203.465 152.653 203.363 152.653 203.26V197.305C152.652 197.202 152.672 197.1 152.712 197.005C152.751 196.91 152.809 196.823 152.882 196.751C152.955 196.678 153.041 196.621 153.137 196.582C153.232 196.543 153.334 196.523 153.437 196.524H162.951C163.054 196.524 163.155 196.544 163.25 196.584C163.344 196.623 163.43 196.681 163.502 196.753C163.575 196.826 163.632 196.912 163.671 197.007C163.71 197.102 163.73 197.203 163.729 197.305V203.26ZM163.729 192.257C163.728 192.463 163.646 192.66 163.5 192.806C163.355 192.951 163.157 193.034 162.951 193.035H153.437C153.335 193.035 153.233 193.015 153.138 192.976C153.043 192.938 152.957 192.88 152.884 192.808C152.811 192.736 152.753 192.65 152.713 192.556C152.674 192.461 152.653 192.359 152.653 192.257V186.298C152.653 186.196 152.673 186.094 152.712 185.999C152.752 185.904 152.81 185.817 152.883 185.745C152.956 185.672 153.042 185.615 153.137 185.576C153.233 185.537 153.335 185.517 153.437 185.517H162.951C163.054 185.517 163.155 185.537 163.25 185.577C163.344 185.616 163.43 185.674 163.502 185.746C163.575 185.819 163.632 185.905 163.671 186C163.71 186.095 163.73 186.196 163.729 186.298V192.257ZM163.729 181.25C163.729 181.456 163.647 181.654 163.501 181.8C163.355 181.946 163.158 182.028 162.951 182.028H153.437C153.335 182.028 153.233 182.008 153.138 181.97C153.043 181.931 152.957 181.874 152.884 181.801C152.811 181.729 152.753 181.643 152.713 181.549C152.674 181.454 152.653 181.352 152.653 181.25V175.292C152.653 175.189 152.674 175.087 152.713 174.993C152.753 174.898 152.811 174.812 152.884 174.74C152.957 174.668 153.043 174.611 153.138 174.572C153.233 174.533 153.335 174.513 153.437 174.514H162.951C163.158 174.514 163.355 174.596 163.501 174.742C163.647 174.887 163.729 175.085 163.729 175.292V181.25ZM163.729 170.243C163.729 170.449 163.647 170.647 163.501 170.793C163.355 170.939 163.158 171.021 162.951 171.021H153.437C153.335 171.021 153.233 171.001 153.138 170.963C153.043 170.924 152.957 170.867 152.884 170.794C152.811 170.722 152.753 170.636 152.713 170.542C152.674 170.447 152.653 170.346 152.653 170.243V164.285C152.653 164.182 152.673 164.08 152.712 163.985C152.752 163.89 152.81 163.804 152.883 163.731C152.956 163.658 153.042 163.601 153.137 163.562C153.233 163.523 153.335 163.503 153.437 163.503H162.951C163.054 163.503 163.155 163.524 163.25 163.563C163.344 163.602 163.43 163.66 163.502 163.732C163.575 163.805 163.632 163.891 163.671 163.986C163.71 164.081 163.73 164.182 163.729 164.285V170.243Z" fill="white"/>
</g>
<defs>
<clipPath id="clip0_334_153">
<rect width="250" height="250" fill="white"/>
</clipPath>
</defs>
</svg>
