<svg width="250" height="250" viewBox="0 0 250 250" fill="none" xmlns="http://www.w3.org/2000/svg">
<g clip-path="url(#clip0_334_158)">
<path d="M-0.375 -0.375H250.375V250.375H-0.375V-0.375Z" fill="#DD1367"/>
<path d="M17.4028 30.8786C15.9723 31.6459 11.9132 32.7674 10.4966 33.4758V26.6876C12.3855 25.9202 17.6389 23.382 19.4098 21.4341H26.5521V69.2466H17.4028V30.8786ZM28.382 56.2501V34.8334C28.382 26.4515 32.3369 20.7848 41.191 20.7848C49.9271 20.7848 53.941 26.4515 53.941 34.8334V56.2501C53.941 64.3369 49.573 70.0626 41.191 70.0626C32.6389 70.073 28.382 64.4063 28.382 56.2501ZM44.6737 56.073V35.0105C44.6737 32.4723 44.4376 28.8126 41.2014 28.8126C37.8369 28.8126 37.6598 32.4723 37.6598 35.0105V56.0834C37.6598 58.4445 38.073 62.0452 41.2014 62.0452C44.2605 62.0452 44.6737 58.4445 44.6737 56.0834V56.073ZM79.7674 21.3994H84.1702C87.8264 21.3994 89.9028 22.573 89.9028 26.2605C89.9028 28.4515 89.3612 29.9862 87.6459 30.6841L90.1945 39.6911H86.8542L84.6667 31.3161H83.0869V39.6911H79.7674V21.3994ZM84.1459 29.2292C86.066 29.2292 86.7639 28.3959 86.7639 26.4306C86.7639 24.5799 86.2466 23.6772 84.3334 23.6772H83.0938V29.2327L84.1459 29.2292ZM91.8438 21.3994H99.5174V23.7466H95.1598V29.0036H98.5903V31.3299H95.1598V37.3994H99.5626V39.6806H91.8438V21.3994ZM100.913 21.3994H105.226C109.674 21.3994 111.028 23.1806 111.028 27.0869V33.7431C111.028 37.7605 109.639 39.6806 105.361 39.6806H100.913V21.3994ZM105.271 37.3542C107.549 37.3542 107.642 36.1355 107.642 33.8577V26.8612C107.642 24.6702 107.417 23.7674 105.212 23.7674H104.219V37.3542H105.271ZM112.764 33.7674V21.3994H116.014V34.1494C116.014 35.8855 116.215 37.4445 117.91 37.4445C119.604 37.4445 119.83 35.889 119.83 34.1494V21.3994H123.056V33.7674C123.056 37.5869 122.014 39.9272 117.91 39.9272C113.806 39.9272 112.764 37.6042 112.764 33.7674ZM131.743 27.9897V26.4098C131.743 24.8751 131.722 23.632 130.028 23.632C128.333 23.632 128.156 24.9411 128.156 26.6112V34.5348C128.156 36.5209 128.563 37.4688 130.028 37.4688C131.677 37.4688 131.743 36.1806 131.743 34.5556V32.9098H134.951V34.3751C134.951 37.4688 133.955 39.7466 130.458 39.9306V41.0591C132.129 41.0591 133.257 41.8056 133.257 43.2049C133.257 44.8056 131.833 45.4827 130.188 45.4827C129.637 45.4773 129.09 45.3943 128.563 45.2362V43.8126C128.957 43.9354 129.368 43.9963 129.781 43.9931C130.569 43.9931 131.17 43.7674 131.17 43.1598C131.17 42.3473 130.247 42.0522 129.184 41.9411V39.8855C125.844 39.5383 124.806 37.132 124.806 33.8369V27.3126C124.806 23.5661 126.004 21.1945 130.014 21.1945C133.76 21.1945 134.958 23.2779 134.958 26.4549V27.9897H131.743ZM139.417 21.3994H142.983L146.642 39.6806H143.549L142.826 35.4584H139.642L138.889 39.6806H135.764L139.417 21.3994ZM140.111 17.9272C139.524 17.9272 139.32 18.2744 139.32 18.8542H137.74C137.74 17.2292 138.191 16.0105 139.66 16.0105C140.764 16.0105 141.51 17.0522 142.479 17.0522C143 17.0522 143.201 16.7362 143.201 16.1494H144.691C144.691 17.5695 144.445 18.9931 142.976 18.9931C141.809 19.007 141.042 17.9445 140.118 17.9445L140.111 17.9272ZM142.465 33.3334L141.222 25.6598L139.983 33.3334H142.465ZM147.406 33.948V27.0834C147.406 23.382 148.76 21.1806 152.688 21.1806C156.615 21.1806 157.948 23.3716 157.948 27.0834V33.948C157.948 37.6251 156.594 39.9272 152.688 39.9272C148.781 39.9272 147.406 37.6494 147.406 33.948ZM154.563 34.7223V26.3195C154.563 24.7848 154.313 23.632 152.688 23.632C151.063 23.632 150.792 24.7848 150.792 26.3195V34.7223C150.792 36.2362 151.042 37.4549 152.688 37.4549C154.333 37.4549 154.563 36.2501 154.563 34.7223ZM164.719 21.3994H169.028C173.476 21.3994 174.83 23.1806 174.83 27.0869V33.7431C174.83 37.7605 173.441 39.6806 169.163 39.6806H164.719V21.3994ZM169.073 37.3542C171.354 37.3542 171.445 36.1355 171.445 33.8577V26.8612C171.445 24.6702 171.219 23.7674 169.014 23.7674H168.021V37.3542H169.073ZM179.299 21.3994H182.865L186.521 39.6806H183.427L182.705 35.4584H179.514L178.767 39.6806H175.642L179.299 21.3994ZM182.344 33.3334L181.104 25.6598L179.861 33.3334H182.344ZM187.219 34.3542L190.087 33.7883C190.177 35.9549 190.695 37.3542 192.17 37.3542C193.229 37.3542 193.681 36.632 193.681 35.639C193.681 34.0591 192.868 33.1806 191.674 32.1424L189.372 30.132C188.063 29.0036 187.25 27.7397 187.25 25.7084C187.25 22.8195 189.056 21.1945 191.965 21.1945C195.396 21.1945 196.368 23.4966 196.549 26.1598L193.681 26.6563C193.615 24.9411 193.365 23.6563 191.899 23.6563C190.906 23.6563 190.365 24.3994 190.365 25.3716C190.365 26.6112 190.882 27.2883 191.854 28.1251L194.132 30.132C195.622 31.4202 196.865 33.0209 196.865 35.4376C196.865 38.0765 195.014 39.9272 192.281 39.9272C188.934 39.9306 187.354 37.9862 187.219 34.3542ZM79.7674 51.2605H84.0799C88.5244 51.2605 89.8785 53.0417 89.8785 56.948V63.6042C89.8785 67.6216 88.4896 69.5417 84.2153 69.5417H79.7674V51.2605ZM84.1251 67.2327C86.4028 67.2327 86.4931 66.014 86.4931 63.7362V56.7223C86.4931 54.5313 86.2674 53.6286 84.0799 53.6286H83.0869V67.2154L84.1251 67.2327ZM91.7535 51.2605H99.4271V53.6077H95.0695V58.8647H98.5001V61.1911H95.0695V67.2605H99.4723V69.5417H91.7535V51.2605ZM100.375 64.2154L103.24 63.6494C103.33 65.8161 103.847 67.2154 105.323 67.2154C106.385 67.2154 106.837 66.4931 106.837 65.5001C106.837 63.9202 106.024 63.0417 104.826 62.0036L102.524 59.9931C101.215 58.8647 100.403 57.6008 100.403 55.5695C100.403 52.6806 102.208 51.0556 105.122 51.0556C108.552 51.0556 109.521 53.3577 109.701 56.0209L106.837 56.5174C106.767 54.8022 106.521 53.5174 105.052 53.5174C104.059 53.5174 103.517 54.2605 103.517 55.2327C103.517 56.4723 104.038 57.1494 105.007 57.9862L107.288 59.9931C108.778 61.2813 110.017 62.882 110.017 65.2987C110.017 67.9376 108.167 69.7883 105.438 69.7883C102.083 69.7917 100.507 67.8473 100.375 64.2154ZM111.476 51.2605H114.771V69.5417H111.476V51.2605ZM116.712 63.514V57.3751C116.712 53.448 117.91 51.0556 121.92 51.0556C125.667 51.0556 126.976 52.9966 126.976 56.382V57.3299H123.792V56.2883C123.792 54.5279 123.611 53.4897 121.965 53.4897C120.205 53.4897 120.069 54.9133 120.069 56.5834V64.2223C120.069 66.1181 120.417 67.3161 122.056 67.3161C123.694 67.3161 124.066 66.0522 124.066 64.0661V62.3508H122.101V60.2501H127.083V69.5279H124.917L124.691 67.7431C124.194 68.9167 123.302 69.7744 121.597 69.7744C117.976 69.7917 116.712 67.3612 116.712 63.514ZM128.899 63.6286V51.2605H132.149V64.0105C132.149 65.7466 132.354 67.3056 134.045 67.3056C135.736 67.3056 135.965 65.7501 135.965 64.0105V51.2605H139.191V63.6286C139.191 67.4654 138.132 69.7883 134.045 69.7883C129.958 69.7883 128.899 67.4654 128.899 63.6286ZM143.865 51.2605H147.431L151.087 69.5417H147.993L147.271 65.3195H144.097L143.351 69.5417H140.226L143.865 51.2605ZM146.91 63.1945L145.67 55.5209L144.445 63.1945H146.91ZM152.326 51.2605H155.646V67.2605H160.09V69.5417H152.326V51.2605ZM161.243 51.2605H165.552C170 51.2605 171.354 53.0417 171.354 56.948V63.6042C171.354 67.6216 169.965 69.5417 165.688 69.5417H161.243V51.2605ZM165.597 67.2327C167.879 67.2327 167.969 66.014 167.969 63.7362V56.7223C167.969 54.5313 167.743 53.6286 165.538 53.6286H164.545V67.2154L165.597 67.2327ZM175.823 51.2605H179.389L183.045 69.5417H179.951L179.229 65.3195H176.042L175.295 69.5417H172.17L175.823 51.2605ZM178.868 63.1945L177.629 55.5209L176.389 63.1945H178.868ZM184.285 51.2605H188.597C193.042 51.2605 194.396 53.0417 194.396 56.948V63.6042C194.396 67.6216 193.007 69.5417 188.733 69.5417H184.285V51.2605ZM188.642 67.2327C190.92 67.2327 191.01 66.014 191.01 63.7362V56.7223C191.01 54.5313 190.785 53.6286 188.58 53.6286H187.604V67.2154L188.642 67.2327ZM196.267 51.2605H203.945V53.6077H199.587V58.8647H203.017V61.1911H199.587V67.2605H203.99V69.5417H196.267V51.2605ZM204.889 64.2154L207.757 63.6494C207.847 65.8161 208.365 67.2154 209.84 67.2154C210.882 67.2154 211.351 66.4931 211.351 65.5001C211.351 63.9202 210.538 63.0417 209.344 62.0036L207.042 59.9931C205.733 58.8647 204.92 57.6008 204.92 55.5695C204.92 52.6806 206.726 51.0556 209.635 51.0556C213.07 51.0556 214.038 53.3577 214.219 56.0209L211.351 56.5174C211.285 54.8022 211.035 53.5174 209.57 53.5174C208.576 53.5174 208.035 54.2605 208.035 55.2327C208.035 56.4723 208.552 57.1494 209.524 57.9862L211.802 59.9931C213.295 61.2813 214.535 62.882 214.535 65.2987C214.535 67.9376 212.684 69.7883 209.951 69.7883C206.597 69.7917 205.024 67.8473 204.889 64.2154ZM148.264 164.167H102.083C101.943 164.175 101.812 164.238 101.718 164.343C101.624 164.448 101.576 164.585 101.583 164.726V178.615C101.578 178.754 101.627 178.89 101.72 178.993C101.814 179.096 101.944 179.159 102.083 179.167H148.264C148.335 179.163 148.404 179.146 148.467 179.115C148.531 179.085 148.588 179.042 148.635 178.989C148.683 178.937 148.719 178.875 148.742 178.809C148.765 178.742 148.775 178.671 148.771 178.601V164.712C148.774 164.573 148.722 164.438 148.628 164.337C148.533 164.235 148.403 164.174 148.264 164.167ZM148.264 134.635H102.083C101.943 134.644 101.812 134.707 101.718 134.812C101.624 134.916 101.576 135.054 101.583 135.195V149.083C101.578 149.154 101.587 149.224 101.61 149.291C101.632 149.358 101.667 149.42 101.714 149.473C101.761 149.526 101.817 149.569 101.881 149.6C101.944 149.631 102.013 149.649 102.083 149.653H148.264C148.335 149.649 148.404 149.632 148.467 149.601C148.531 149.571 148.588 149.528 148.635 149.476C148.683 149.423 148.719 149.361 148.742 149.295C148.765 149.228 148.775 149.157 148.771 149.087V135.198C148.777 135.057 148.728 134.919 148.633 134.814C148.538 134.709 148.405 134.646 148.264 134.639M147.618 113.656L125.451 91.4897C125.416 91.454 125.374 91.4256 125.327 91.4063C125.281 91.387 125.231 91.377 125.181 91.377C125.13 91.377 125.08 91.387 125.034 91.4063C124.987 91.4256 124.945 91.454 124.91 91.4897L102.743 113.656C102.689 113.71 102.653 113.778 102.638 113.852C102.623 113.927 102.631 114.004 102.66 114.074C102.689 114.144 102.738 114.203 102.801 114.245C102.864 114.287 102.938 114.309 103.014 114.309H147.347C147.423 114.309 147.497 114.287 147.56 114.245C147.623 114.203 147.673 114.144 147.702 114.074C147.731 114.004 147.738 113.927 147.723 113.852C147.708 113.778 147.672 113.71 147.618 113.656ZM168.427 179.34L190.594 157.174C190.63 157.138 190.658 157.096 190.677 157.05C190.696 157.003 190.706 156.953 190.706 156.903C190.706 156.853 190.696 156.803 190.677 156.756C190.658 156.71 190.63 156.668 190.594 156.632L168.427 134.465C168.373 134.412 168.305 134.376 168.231 134.361C168.156 134.347 168.079 134.354 168.009 134.383C167.939 134.412 167.879 134.461 167.837 134.524C167.795 134.587 167.772 134.66 167.771 134.736V179.07C167.772 179.145 167.795 179.219 167.837 179.282C167.879 179.345 167.939 179.394 168.009 179.422C168.079 179.451 168.156 179.459 168.231 179.444C168.305 179.43 168.373 179.394 168.427 179.34ZM102.743 200.149L124.91 222.313C124.945 222.349 124.987 222.377 125.034 222.397C125.08 222.417 125.13 222.427 125.181 222.427C125.231 222.427 125.281 222.417 125.328 222.397C125.374 222.377 125.416 222.349 125.451 222.313L147.618 200.149C147.671 200.096 147.708 200.027 147.722 199.953C147.737 199.878 147.729 199.802 147.7 199.732C147.671 199.661 147.622 199.602 147.56 199.559C147.497 199.517 147.423 199.494 147.347 199.493H103.014C102.938 199.494 102.864 199.517 102.802 199.559C102.739 199.602 102.69 199.661 102.661 199.732C102.632 199.802 102.625 199.878 102.639 199.953C102.654 200.027 102.69 200.096 102.743 200.149ZM81.9445 134.465L59.7674 156.632C59.7317 156.668 59.7034 156.71 59.6841 156.756C59.6647 156.803 59.6548 156.853 59.6548 156.903C59.6548 156.953 59.6647 157.003 59.6841 157.05C59.7034 157.096 59.7317 157.138 59.7674 157.174L81.9445 179.34C81.9979 179.394 82.0661 179.431 82.1404 179.446C82.2147 179.46 82.2917 179.453 82.3617 179.424C82.4317 179.395 82.4914 179.346 82.5334 179.283C82.5753 179.219 82.5976 179.145 82.5973 179.07V134.722C82.5949 134.648 82.5707 134.575 82.5277 134.514C82.4848 134.453 82.4249 134.406 82.3554 134.379C82.286 134.352 82.2101 134.345 82.137 134.361C82.064 134.376 81.9971 134.412 81.9445 134.465Z" fill="white"/>
</g>
<defs>
<clipPath id="clip0_334_158">
<rect width="250" height="250" fill="white"/>
</clipPath>
</defs>
</svg>
