<svg width="250" height="250" viewBox="0 0 250 250" fill="none" xmlns="http://www.w3.org/2000/svg">
<g clip-path="url(#clip0_334_149)">
<path d="M-0.375 -0.375H250.375V250.375H-0.375V-0.375Z" fill="#56C02B"/>
<path d="M16.9375 30.8786C15.5208 31.6459 11.4583 32.7675 10.0312 33.4758V26.6876C11.9201 25.9202 17.1736 23.3821 18.9444 21.4341H26.0868V69.2466H16.9375V30.8786ZM27.2674 55.3751H36.1111C36.1111 60.6286 36.7604 63.3612 40.066 63.2258C43.5382 63.1077 43.7257 59.2119 43.7257 52.955C43.7257 47.8786 43.1944 44.2744 39.6528 44.2744C37.5278 44.2744 36.1806 45.7501 35.5799 48.5834H27.7396L28.3889 21.4307H50.3472V29.2848H35.8264L35.3542 39.8508C36.2986 38.6702 38.7188 37.7258 41.375 37.5487C48.7535 36.8994 52.3542 42.7571 52.3542 52.5418C52.3542 62.6946 50.4063 70.014 39.5451 70.014C29.4514 70.014 27.2674 64.2362 27.2674 55.3751ZM78.7917 21.3994H81.7257L84.1562 34.33L86.434 21.3994H89.4375L85.757 39.6807H82.4861L78.7917 21.3994ZM90.7083 21.3994H94.0035V39.6807H90.7083V21.3994ZM96.1493 21.3994H100.458C104.906 21.3994 106.25 23.1807 106.25 27.0834V33.7432C106.25 37.7605 104.861 39.6807 100.583 39.6807H96.1389L96.1493 21.3994ZM100.503 37.3543C102.785 37.3543 102.875 36.1355 102.875 33.8577V26.8612C102.875 24.6702 102.649 23.7675 100.444 23.7675H99.4514V37.3543H100.503ZM110.639 21.3994H114.205L117.861 39.6807H114.767L114.045 35.4584H110.865L110.118 39.6807H106.993L110.639 21.3994ZM113.684 33.3334L112.444 25.6598L111.201 33.3334H113.684ZM81.4792 53.7189H78.566V51.2605H87.6632V53.7189H84.8195V69.5418H81.4792V53.7189ZM88.6563 51.2605H96.3299V53.6077H91.9722V58.8647H95.4028V61.1911H91.9722V67.2605H96.375V69.5418H88.6563V51.2605ZM97.6354 51.2605H102.038C105.694 51.2605 107.771 52.4341 107.771 56.1216C107.771 58.3126 107.229 59.8473 105.514 60.5452L108.066 69.5522H104.726L102.535 61.1772H100.955V69.5522H97.6354V51.2605ZM102.017 59.0904C103.934 59.0904 104.635 58.257 104.635 56.2918C104.635 54.4411 104.115 53.5383 102.205 53.5383H100.962V59.0939L102.017 59.0904ZM109.622 51.2605H114.021C117.677 51.2605 119.757 52.4341 119.757 56.1216C119.757 58.3126 119.215 59.8473 117.497 60.5452L120.049 69.5522H116.708L114.517 61.1772H112.938V69.5522H109.622V51.2605ZM114 59.0904C115.917 59.0904 116.618 58.257 116.618 56.2918C116.618 54.4411 116.097 53.5383 114.187 53.5383H112.944V59.0939L114 59.0904ZM121.604 51.2605H129.278V53.6077H124.924V58.8647H128.354V61.1911H124.924V67.2605H129.323V69.5418H121.604V51.2605ZM130.135 64.2154L133.003 63.6494C133.094 65.8161 133.611 67.2154 135.087 67.2154C136.146 67.2154 136.597 66.4932 136.597 65.5001C136.597 63.9202 135.785 63.0418 134.59 62.0036L132.292 59.9932C130.983 58.8647 130.17 57.6008 130.17 55.5695C130.17 52.6807 131.976 51.0557 134.885 51.0557C138.316 51.0557 139.288 53.3577 139.469 56.0209L136.601 56.5175C136.535 54.8022 136.285 53.5175 134.819 53.5175C133.826 53.5175 133.285 54.2605 133.285 55.2327C133.285 56.4723 133.802 57.1494 134.774 57.9862L137.052 59.9932C138.542 61.2814 139.785 62.882 139.785 65.2987C139.785 67.9376 137.934 69.7883 135.201 69.7883C131.851 69.7918 130.271 67.8473 130.135 64.2154ZM142.889 53.7189H139.976V51.2605H149.073V53.7189H146.229V69.5418H142.889V53.7189ZM150.066 51.2605H154.465C158.122 51.2605 160.198 52.4341 160.198 56.1216C160.198 58.3126 159.656 59.8473 157.941 60.5452L160.493 69.5522H157.153L154.962 61.1772H153.382V69.5522H150.066V51.2605ZM154.444 59.0904C156.361 59.0904 157.063 58.257 157.063 56.2918C157.063 54.4411 156.542 53.5383 154.632 53.5383H153.389V59.0939L154.444 59.0904ZM162.049 51.2605H169.722V53.6077H165.368V58.8647H168.799V61.1911H165.368V67.2605H169.767V69.5418H162.049V51.2605ZM103.365 169.368C103.511 169.369 103.652 169.428 103.755 169.532C103.859 169.636 103.917 169.777 103.917 169.924V188.267C103.918 188.34 103.904 188.413 103.877 188.48C103.849 188.548 103.809 188.609 103.757 188.661C103.706 188.713 103.645 188.754 103.577 188.782C103.51 188.809 103.438 188.823 103.365 188.823H95.941C95.8676 188.824 95.7948 188.81 95.7268 188.783C95.6587 188.755 95.5969 188.714 95.5449 188.663C95.4928 188.611 95.4516 188.549 95.4236 188.481C95.3956 188.414 95.3815 188.341 95.382 188.267V169.924C95.3829 169.776 95.4422 169.635 95.5469 169.531C95.6516 169.427 95.7933 169.368 95.941 169.368H103.365ZM184.878 196.701H62.5556C62.4057 196.704 62.263 196.766 62.1584 196.873C62.0537 196.98 61.9956 197.125 61.9965 197.274V204.75C61.997 204.823 62.0118 204.895 62.0401 204.962C62.0685 205.03 62.1098 205.091 62.1617 205.142C62.2136 205.193 62.2751 205.234 62.3427 205.261C62.4103 205.289 62.4826 205.303 62.5556 205.302H184.878C185.026 205.302 185.167 205.244 185.273 205.141C185.378 205.038 185.438 204.897 185.441 204.75V197.274C185.44 197.125 185.381 196.981 185.276 196.874C185.171 196.767 185.028 196.705 184.878 196.701ZM184.878 211.559H62.5556C62.4826 211.559 62.4103 211.573 62.3427 211.6C62.2751 211.628 62.2136 211.668 62.1617 211.719C62.1098 211.771 62.0685 211.832 62.0401 211.899C62.0118 211.966 61.997 212.038 61.9965 212.111V219.611C61.9992 219.758 62.0592 219.898 62.1637 220.001C62.2681 220.104 62.4088 220.162 62.5556 220.163H184.878C185.026 220.162 185.167 220.104 185.272 220.001C185.377 219.898 185.437 219.758 185.441 219.611V212.111C185.438 211.964 185.378 211.823 185.273 211.72C185.167 211.617 185.026 211.559 184.878 211.559ZM161.604 149.063C160.073 147.868 155.997 145.076 151.021 145.076C147.465 145.076 144.156 146.465 141.198 149.243C141.094 149.342 141.011 149.461 140.955 149.593C140.898 149.725 140.87 149.867 140.872 150.011V150.695C140.864 150.851 140.892 151.007 140.952 151.152C141.012 151.296 141.103 151.426 141.219 151.531C141.337 151.629 141.476 151.698 141.626 151.732C141.775 151.767 141.931 151.766 142.08 151.729C142.159 151.719 142.237 151.7 142.312 151.674C142.542 151.591 142.751 151.458 142.924 151.285C143.562 150.854 145.316 150.264 147.823 150.264C150.413 150.264 155.503 150.958 160.427 155.549L160.538 155.649C160.677 155.791 160.843 155.902 161.026 155.978C161.21 156.054 161.406 156.092 161.604 156.09C161.798 156.092 161.99 156.055 162.169 155.981C162.348 155.907 162.51 155.798 162.646 155.66L162.743 155.556C167.691 150.958 172.774 150.264 175.365 150.264C177.889 150.264 179.635 150.854 180.278 151.285C180.475 151.474 180.712 151.615 180.972 151.698C181.205 151.763 181.451 151.772 181.688 151.722C181.909 151.663 182.105 151.531 182.245 151.348C182.384 151.166 182.459 150.942 182.458 150.712V150.122C182.457 149.98 182.427 149.84 182.37 149.71C182.313 149.58 182.231 149.462 182.128 149.365C179.142 146.517 175.799 145.08 172.188 145.08C167.257 145.08 163.198 147.826 161.628 149.073M154.01 100.309C153.881 100.372 153.766 100.463 153.675 100.574C153.583 100.686 153.516 100.816 153.479 100.955L153.354 101.361C153.307 101.516 153.297 101.68 153.325 101.84C153.353 102 153.417 102.151 153.514 102.281C153.602 102.401 153.716 102.5 153.847 102.571C153.978 102.641 154.122 102.682 154.271 102.691C154.321 102.701 154.373 102.701 154.424 102.691C154.63 102.687 154.833 102.636 155.017 102.542C155.259 102.483 155.508 102.455 155.757 102.458C156.306 102.458 161.236 102.625 164.497 108.167L164.538 108.247C164.619 108.399 164.729 108.533 164.864 108.64C164.998 108.748 165.153 108.827 165.319 108.872C165.447 108.908 165.579 108.928 165.712 108.931C165.926 108.932 166.138 108.88 166.326 108.778L166.406 108.74C168.099 107.871 169.972 107.411 171.875 107.396C174.965 107.396 176.983 108.656 177.455 109.184C177.556 109.364 177.694 109.519 177.861 109.639C177.989 109.712 178.123 109.776 178.26 109.83C178.32 109.843 178.38 109.852 178.441 109.858C178.478 109.861 178.515 109.861 178.552 109.858C178.777 109.856 178.996 109.782 179.177 109.647C179.357 109.512 179.49 109.323 179.556 109.108L179.656 108.761C179.688 108.665 179.703 108.566 179.701 108.465C179.704 108.28 179.655 108.097 179.559 107.938C177.184 103.813 173.736 102.951 171.26 102.951C169.756 102.972 168.267 103.251 166.858 103.778C165.736 102.271 162.906 99.1564 158.608 99.1564C157.009 99.1766 155.437 99.5739 154.021 100.316M128.163 119.129L128.201 119.677C128.208 119.844 128.256 120.007 128.341 120.151C128.426 120.295 128.545 120.416 128.688 120.504C128.809 120.58 128.944 120.63 129.086 120.652C129.228 120.673 129.372 120.665 129.51 120.629C129.569 120.629 129.639 120.59 129.691 120.573C129.897 120.488 130.078 120.353 130.219 120.181C130.74 119.806 132.413 119.122 134.885 119.122C137.26 119.122 140.875 119.757 144.556 122.781L144.642 122.868C144.906 123.093 145.241 123.216 145.587 123.215H145.677C146.045 123.193 146.389 123.027 146.635 122.754L146.719 122.663C150.795 118.354 155.188 117.708 157.441 117.708C159.049 117.708 160.188 118.056 160.632 118.292C160.815 118.45 161.033 118.563 161.267 118.622C161.414 118.656 161.565 118.667 161.715 118.653C161.802 118.639 161.888 118.618 161.972 118.59C162.185 118.515 162.368 118.373 162.493 118.186C162.619 117.998 162.679 117.774 162.667 117.549L162.639 117.07C162.629 116.93 162.592 116.794 162.529 116.669C162.465 116.545 162.378 116.434 162.271 116.344C159.84 114.295 157.208 113.264 154.444 113.264C150.142 113.264 146.712 115.806 145.288 117.052C143.986 116.167 140.83 114.344 137.128 114.344C133.872 114.344 130.955 115.695 128.448 118.354C128.351 118.459 128.276 118.582 128.227 118.716C128.178 118.85 128.156 118.993 128.163 119.136M66.2639 128.948C66.2639 125.433 67.6595 122.062 70.1441 119.575C72.6287 117.089 75.9988 115.69 79.5139 115.688C79.8021 115.688 80.0799 115.712 80.3646 115.729C80.5586 113.094 81.3325 110.534 82.6311 108.232C83.9297 105.931 85.7209 103.945 87.8765 102.416C90.0321 100.888 92.4988 99.8546 95.1003 99.3904C97.7018 98.9263 100.374 99.0428 102.925 99.7316C105.476 100.42 107.844 101.664 109.858 103.375C111.872 105.085 113.484 107.22 114.577 109.625C115.671 112.031 116.219 114.649 116.183 117.291C116.146 119.933 115.527 122.535 114.368 124.91C119.19 125.979 123.447 128.792 126.323 132.807C129.199 136.822 130.492 141.758 129.952 146.668C129.413 151.577 127.08 156.115 123.401 159.41C119.723 162.706 114.956 164.527 110.017 164.524C109.208 164.524 83.257 164.368 83.257 164.368C80.4855 164.37 77.774 163.561 75.4577 162.039C73.1413 160.517 71.3214 158.35 70.223 155.806C69.1245 153.261 68.7955 150.451 69.2767 147.721C69.7579 144.992 71.0282 142.463 72.9306 140.448C70.9041 139.289 69.2202 137.615 68.0494 135.595C66.8786 133.576 66.2626 131.282 66.2639 128.948Z" fill="white"/>
</g>
<defs>
<clipPath id="clip0_334_149">
<rect width="250" height="250" fill="white"/>
</clipPath>
</defs>
</svg>
