<svg width="250" height="250" viewBox="0 0 250 250" fill="none" xmlns="http://www.w3.org/2000/svg">
<g clip-path="url(#clip0_334_144)">
<path d="M-0.375 -0.375H250.375V250.375H-0.375V-0.375Z" fill="#4C9F38"/>
<path d="M18.9619 55.6111V53.9583H28.0522V55.5556C28.1251 60.2153 28.9376 62.3993 31.9446 62.3993C35.014 62.3993 35.6633 60.0382 35.6633 55.4931C35.6633 50.7118 34.5418 47.9965 30.3508 47.8785C29.8219 47.817 29.289 47.7972 28.7571 47.8194V41.1493H30.1737C34.4237 41.1493 35.6633 38.9653 35.6633 34.066C35.6633 30.2465 34.7779 28.0451 31.7675 28.0451C28.7571 28.0451 28.1251 30.6424 28.0522 34.375V36.5H18.9619V33.8889C18.9619 25.5069 23.6841 20.7847 31.7709 20.7847C39.9168 20.7847 44.639 25.2708 44.639 33.5938C44.639 39.2014 42.0418 43.0972 38.6182 44.0417C42.0904 45.3403 44.639 48.5278 44.639 55.316C44.639 63.9965 41.1668 70.0729 31.83 70.0729C22.2675 70.0729 18.9619 64.2882 18.9619 55.6111ZM65.1598 34.3542L68.0279 33.7882C68.1182 35.9549 68.6355 37.3542 70.1112 37.3542C71.1529 37.3542 71.6216 36.6319 71.6216 35.6389C71.6216 34.059 70.8091 33.1806 69.6147 32.1424L67.3126 30.1319C66.0036 29.0035 65.1911 27.7396 65.1911 25.7083C65.1911 22.8194 66.9966 21.1944 69.9064 21.1944C73.3369 21.1944 74.3091 23.4965 74.4897 26.1597L71.6216 26.6562C71.5557 24.941 71.3057 23.6562 69.8404 23.6562C68.8473 23.6562 68.3057 24.3993 68.3057 25.3715C68.3057 26.6111 68.823 27.2882 69.7952 28.125L72.073 30.1319C73.5626 31.4201 74.8057 33.0208 74.8057 35.4375C74.8057 38.0764 72.955 39.9271 70.2223 39.9271C66.8751 39.9306 65.2952 37.9861 65.1598 34.3542ZM79.2883 21.3993H82.8543L86.5105 39.6806H83.4202L82.698 35.4583H79.514L78.7709 39.6806H75.6459L79.2883 21.3993ZM82.3369 33.3333L81.0939 25.6597L79.8612 33.3333H82.3369ZM88.0001 33.7674V21.3993H91.2501V34.1493C91.2501 35.8854 91.455 37.4444 93.1459 37.4444C94.8369 37.4444 95.0661 35.8889 95.0661 34.1493V21.3993H98.2918V33.7674C98.2918 37.5868 97.2327 39.9271 93.1459 39.9271C89.0591 39.9271 88.0001 37.6042 88.0001 33.7674ZM93.5973 15.625H96.7223L94.0279 20.1389H92.2432L93.5973 15.625ZM100.799 21.3993H105.108C109.556 21.3993 110.91 23.1806 110.91 27.0868V33.7431C110.91 37.7604 109.521 39.6806 105.243 39.6806H100.799V21.3993ZM105.153 37.3542C107.434 37.3542 107.524 36.1354 107.524 33.8576V26.8611C107.524 24.6701 107.299 23.7674 105.094 23.7674H104.101V37.3542H105.153ZM113.257 21.3993H120.931V23.7465H116.573V29.0035H120.004V31.3299H116.573V37.3993H120.976V39.6806H113.257V21.3993ZM128.174 21.3993H135.847V23.7465H131.493V29.0035H134.924V31.3299H131.493V37.3993H135.892V39.6806H128.174V21.3993ZM65.6251 51.2604H70.139C73.3439 51.2604 75.4897 52.3438 75.4897 55.9549C75.4897 58.1875 74.5626 59.4271 72.8473 59.7014C74.9932 60.1076 76.007 61.6424 76.007 64.2153C76.007 67.7118 74.2918 69.5417 70.9064 69.5417H65.6251V51.2604ZM70.0939 58.7292C72.08 58.7292 72.6008 57.8507 72.6008 56C72.6008 54.059 71.6529 53.5694 69.6216 53.5694H68.9445V58.7153L70.0939 58.7292ZM70.2293 67.1944C72.2605 67.1944 72.8265 66.2465 72.8265 64.191C72.8265 62.0243 72.1043 61.0313 70.1182 61.0313H68.9445V67.1944H70.2293ZM78.0695 51.2604H85.7432V53.6076H81.389V58.8646H84.8195V61.191H81.389V67.2604H85.7883V69.5417H78.0695V51.2604ZM87.889 51.2604H91.3404L93.9376 63.9201L96.6216 51.2604H100L100.347 69.5417H97.8647L97.5939 56.8333L95.0001 69.5417H92.9897L90.3508 56.7882L90.1008 69.5417H87.5973L87.889 51.2604ZM102.83 61.1111H108.267V63.1944H102.83V61.1111ZM110.82 51.2604H118.493V53.6076H114.136V58.8646H117.566V61.191H114.136V67.2604H118.538V69.5417H110.82V51.2604ZM119.913 64.2153L122.781 63.6493C122.872 65.816 123.389 67.2153 124.865 67.2153C125.924 67.2153 126.375 66.4931 126.375 65.5C126.375 63.9201 125.563 63.0417 124.368 62.0035L122.066 59.9931C120.757 58.8646 119.945 57.6007 119.945 55.5694C119.945 52.6806 121.75 51.0556 124.66 51.0556C128.09 51.0556 129.063 53.3576 129.243 56.0208L126.375 56.5174C126.309 54.8021 126.059 53.5174 124.594 53.5174C123.601 53.5174 123.059 54.2604 123.059 55.2326C123.059 56.4722 123.576 57.1493 124.549 57.9861L126.826 59.9931C128.316 61.2812 129.559 62.8819 129.559 65.2986C129.559 67.9375 127.708 69.7882 124.976 69.7882C121.629 69.7917 120.049 67.8472 119.913 64.2153ZM133.229 53.7188H130.32V51.2604H139.413V53.7188H136.57V69.5417H133.229V53.7188ZM143.25 51.2604H146.816L150.472 69.5417H147.382L146.66 65.3194H143.476L142.733 69.5417H139.608L143.25 51.2604ZM146.299 63.1944L145.056 55.5208L143.816 63.1944H146.299ZM152.188 51.2604H156.597C160.254 51.2604 162.33 52.434 162.33 56.1215C162.33 58.3125 161.788 59.8472 160.073 60.5451L162.622 69.5521H159.281L157.094 61.1771H155.514V69.5521H152.188V51.2604ZM156.566 59.0903C158.486 59.0903 159.184 58.2569 159.184 56.2917C159.184 54.441 158.667 53.5382 156.754 53.5382H155.514V59.0938L156.566 59.0903ZM209.608 156.479C209.608 149.392 205.059 143.632 198.17 143.632C194.726 143.632 190.57 147.403 188.316 149.722C186.059 147.399 182.177 143.625 178.733 143.625C171.844 143.625 167.017 149.372 167.017 156.472C167.005 159.859 168.317 163.116 170.674 165.549L188.33 183.24L205.962 165.569C208.317 163.132 209.626 159.869 209.608 156.479Z" fill="white"/>
<path d="M134.427 212.121H134.25C133.598 212.081 132.978 211.821 132.492 211.384C132.005 210.948 131.68 210.36 131.57 209.715L122.601 157.476L109.028 182.667C108.738 183.203 108.286 183.634 107.737 183.899C107.188 184.164 106.569 184.249 105.969 184.142C105.369 184.035 104.818 183.742 104.394 183.304C103.97 182.865 103.695 182.305 103.608 181.701L97.8266 141.389L87.271 165.09C87.0454 165.605 86.6748 166.044 86.2044 166.352C85.734 166.66 85.1841 166.825 84.6217 166.826H43.6078C43.2271 166.826 42.85 166.751 42.4983 166.606C42.1465 166.46 41.8269 166.246 41.5577 165.977C41.2885 165.708 41.0749 165.388 40.9292 165.037C40.7835 164.685 40.7085 164.308 40.7085 163.927C40.7085 163.546 40.7835 163.169 40.9292 162.818C41.0749 162.466 41.2885 162.146 41.5577 161.877C41.8269 161.608 42.1465 161.394 42.4983 161.248C42.85 161.103 43.2271 161.028 43.6078 161.028H82.7397L96.6286 129.851C96.885 129.277 97.3209 128.801 97.8707 128.497C98.4206 128.192 99.0546 128.074 99.6772 128.161C100.3 128.248 100.877 128.535 101.323 128.979C101.768 129.423 102.057 129.999 102.146 130.621L108.094 172.187L121.493 147.347C121.78 146.816 122.224 146.387 122.766 146.121C123.307 145.855 123.918 145.764 124.514 145.862C125.109 145.959 125.659 146.24 126.088 146.665C126.516 147.09 126.801 147.638 126.903 148.233L135.209 196.611L165.479 96.0555C165.648 95.4957 165.981 94.9999 166.436 94.633C166.891 94.266 167.446 94.0452 168.029 93.9994C168.611 93.9536 169.194 94.085 169.701 94.3763C170.208 94.6676 170.615 95.1053 170.868 95.6319L186.806 128.635C186.971 128.978 187.067 129.351 187.089 129.731C187.11 130.111 187.056 130.492 186.93 130.852C186.805 131.211 186.609 131.542 186.356 131.826C186.102 132.11 185.795 132.342 185.452 132.507C185.108 132.672 184.736 132.768 184.356 132.79C183.976 132.811 183.595 132.757 183.235 132.632C182.876 132.506 182.545 132.311 182.261 132.057C181.977 131.803 181.745 131.496 181.58 131.153L168.879 104.861L137.205 210.069C137.023 210.664 136.655 211.184 136.155 211.553C135.654 211.923 135.049 212.122 134.427 212.121Z" fill="white"/>
</g>
<defs>
<clipPath id="clip0_334_144">
<rect width="250" height="250" fill="white"/>
</clipPath>
</defs>
</svg>
